<?xml version="1.0" standalone="no"?>
<!DOCTYPE svg PUBLIC "-//W3C//DTD SVG 20010904//EN"
 "http://www.w3.org/TR/2001/REC-SVG-20010904/DTD/svg10.dtd">
<svg version="1.0" xmlns="http://www.w3.org/2000/svg"
 width="500.000000pt" height="500.000000pt" viewBox="0 0 500.000000 500.000000"
 preserveAspectRatio="xMidYMid meet">

<g transform="translate(0.000000,500.000000) scale(0.100000,-0.100000)"
fill="#000000" stroke="none">
<path d="M1087 3623 c-13 -3 -17 -12 -15 -31 3 -24 9 -27 70 -38 183 -34 240
-98 373 -416 l27 -67 75 -7 c77 -7 289 -2 298 8 3 3 -4 27 -16 54 -42 98 -60
160 -65 234 -5 65 -2 80 16 108 26 42 84 68 184 84 l77 12 -3 30 -3 31 -500 1
c-275 1 -508 0 -518 -3z"/>
<path d="M2994 3606 c-8 -35 0 -43 49 -51 108 -18 196 -75 218 -142 13 -41 0
-111 -47 -243 -19 -52 -34 -95 -34 -96 0 -1 25 -4 57 -7 92 -10 106 -3 127 56
31 89 105 231 152 291 53 67 117 111 196 133 58 16 73 32 63 64 -6 18 -25 19
-390 19 l-385 0 -6 -24z"/>
<path d="M3628 2744 c-3 -5 -38 -85 -77 -179 -44 -104 -81 -179 -97 -192 l-25
-23 63 1 c35 1 53 4 40 6 -33 6 -36 25 -13 77 l20 46 78 0 78 0 18 -43 c22
-55 22 -66 -5 -77 -17 -6 -1 -9 57 -9 71 -1 77 1 55 12 -19 10 -41 50 -95 178
-93 218 -91 214 -97 203z m25 -162 c15 -35 27 -68 27 -73 0 -5 -30 -9 -66 -9
-36 0 -64 3 -62 8 2 4 16 40 32 80 16 40 32 69 36 65 4 -4 19 -36 33 -71z"/>
<path d="M1040 2733 c35 -13 40 -35 40 -188 0 -153 -5 -175 -40 -188 -8 -3 14
-5 50 -5 36 0 55 3 43 5 -31 6 -34 26 -31 183 l3 135 74 -163 c41 -89 78 -159
82 -155 4 5 38 73 74 153 37 80 71 149 76 155 5 5 9 -49 9 -131 0 -142 -5
-165 -40 -177 -8 -3 21 -6 65 -6 71 -1 77 1 55 12 l-25 13 0 169 0 169 25 13
c23 12 21 13 -27 13 -31 0 -55 -5 -60 -12 -4 -7 -35 -73 -69 -146 -34 -73 -65
-133 -70 -134 -4 0 -38 65 -74 144 l-67 143 -54 2 c-30 1 -47 0 -39 -4z"/>
<path d="M1800 2731 l25 -7 0 -179 0 -179 -25 -7 c-14 -4 43 -7 125 -8 l151
-1 17 48 17 47 -34 -37 c-34 -37 -36 -38 -109 -38 -87 0 -87 0 -87 99 l0 68
50 6 c59 7 96 -4 103 -30 3 -10 5 9 5 42 1 44 -2 54 -8 38 -9 -23 -70 -39
-121 -31 -23 3 -24 7 -27 81 l-3 77 79 0 c81 0 100 -8 115 -50 3 -8 6 4 6 28
l1 42 -152 -1 c-84 -1 -142 -4 -128 -8z"/>
<path d="M2383 2734 c29 -9 37 -48 37 -189 0 -147 -8 -181 -42 -188 -13 -3 36
-5 107 -4 118 2 134 4 174 27 65 37 94 95 89 181 -3 54 -9 73 -31 103 -47 61
-75 70 -222 73 -71 1 -122 -1 -112 -3z m227 -36 c52 -36 71 -69 77 -136 5 -49
2 -68 -16 -104 -30 -61 -63 -82 -138 -86 l-63 -4 0 169 c0 93 3 173 7 176 16
17 101 6 133 -15z"/>
<path d="M3040 2731 l25 -7 0 -179 0 -179 -25 -7 c-14 -4 11 -7 60 -7 47 0 76
2 65 5 -11 3 -23 8 -27 12 -12 11 -19 308 -8 335 5 14 19 26 32 29 13 2 -15 4
-62 5 -48 0 -74 -3 -60 -7z"/>
<path d="M1993 2033 c12 -25 92 -207 352 -808 43 -99 83 -186 88 -193 6 -7 24
-12 40 -10 29 3 32 9 188 388 88 212 174 423 193 470 19 47 42 102 51 123 l15
37 -80 0 -80 0 -15 -32 c-8 -18 -49 -116 -90 -218 -42 -102 -79 -188 -83 -192
-4 -4 -51 92 -103 215 l-96 222 -192 3 c-106 1 -191 -1 -188 -5z"/>
</g>
</svg>
